<svg xmlns="http://www.w3.org/2000/svg" viewBox="0 0 512 512" role="img">
  <defs>
    <linearGradient id="bg" x1="0%" y1="0%" x2="0%" y2="100%">
      <stop offset="0%" stop-color="#5ba8ff" />
      <stop offset="100%" stop-color="#0d6cd3" />
    </linearGradient>
    <linearGradient id="plane" x1="0%" y1="0%" x2="100%" y2="0%">
      <stop offset="0%" stop-color="#eff7ff" />
      <stop offset="100%" stop-color="#ffffff" />
    </linearGradient>
    <clipPath id="calendar">
      <rect x="64" y="72" width="384" height="360" rx="70" ry="70" />
    </clipPath>
  </defs>
  <rect x="64" y="72" width="384" height="360" rx="70" ry="70" fill="url(#bg)" />
  <g clip-path="url(#calendar)">
    <rect x="64" y="72" width="384" height="120" fill="#eaf2ff" />
    <rect x="64" y="192" width="384" height="240" fill="url(#bg)" />
  </g>
  <g fill="#1e4a84">
    <rect x="134" y="48" width="60" height="72" rx="22" />
    <rect x="318" y="48" width="60" height="72" rx="22" />
  </g>
  <path fill="url(#plane)" d="M374.4 312.5c-12.5 6.9-41.6 13.3-74.4-5.9l-67.7-38.9-35.7 20.6c-6.1 3.5-13.8 1.4-17.3-4.7-3.5-6.1-1.4-13.8 4.7-17.3l26.5-15.3-54-31.1c-6.9-4-9.2-13-5.2-19.9 4-6.9 13-9.2 19.9-5.2l126.3 72.7c24 13.8 46.9 9.9 53.6 7.4 6.1-2.3 13.2 0.8 15.5 6.9 2.3 6.2-0.8 13.2-6.9 15.7z" />
  <circle cx="256" cy="356" r="22" fill="#eaf2ff" stroke="#ffffff" stroke-width="10" />
</svg>
